<svg width="190" height="50" viewBox="0 0 190 50" fill="none" xmlns="http://www.w3.org/2000/svg">
<path fill-rule="evenodd" clip-rule="evenodd" d="M20.6658 2.62375C17.808 3.85461 13.8272 5.55602 11.8195 6.40461C7.50849 8.2267 7.23802 8.411 7.51581 9.33766C7.74907 10.1167 8.14483 10.1623 9.5729 9.57554C11.5531 8.76165 13.7189 7.86101 15.8465 6.96635C17.006 6.47864 18.7851 5.73299 19.7997 5.30947C23.7311 3.66858 24.909 3.17527 25.6245 2.87011C26.0325 2.69604 26.3746 2.56437 26.3848 2.57748C26.3951 2.5904 26.3874 4.23071 26.3675 6.22225L26.3318 9.8435L21.0892 11.9345C18.2057 13.0844 15.4228 14.2052 14.9052 14.4249C14.3874 14.6447 12.744 15.3038 11.2529 15.8896C5.60369 18.1092 5.62548 18.1 5.36755 18.3569C4.91761 18.8055 5.0167 19.5795 5.5528 19.8016C5.80418 19.9057 5.79435 19.9086 7.90213 19.0949C8.62677 18.815 9.84683 18.356 10.6129 18.0749C11.3792 17.7937 13.0904 17.1523 14.4157 16.6494C15.7411 16.1466 17.3845 15.5292 18.0678 15.2772C18.7512 15.0254 20.1022 14.5171 21.0699 14.1477C23.3176 13.2895 26.2439 12.2023 26.3054 12.2023C26.3316 12.2023 26.344 13.4424 26.3332 14.9583L26.3133 17.7144L26.0122 17.8125C25.7069 17.912 23.3679 18.6559 22.0588 19.07C21.6654 19.1945 20.5301 19.5612 19.5362 19.8849C18.5423 20.2085 17.0681 20.6828 16.2606 20.9386C13.8523 21.7018 12.5601 22.1212 10.5767 22.784C9.54205 23.1296 8.68941 23.4063 8.6817 23.3985C8.67399 23.3908 8.95544 22.9609 9.30706 22.4433C10.3104 20.9657 10.4465 20.5468 10.0758 20.0757C9.76104 19.6753 9.66928 19.6842 8.21654 20.2527C7.48439 20.5391 6.47175 20.9276 5.96611 21.1159C4.15462 21.7902 3.71934 22.3032 4.21283 23.1811C4.51279 23.7147 4.70942 23.7438 5.64225 23.3928C6.45247 23.0878 6.44303 23.0544 5.8223 24.031C5.07164 25.2118 5.00937 25.3608 5.10981 25.7336C5.22239 26.1521 5.62914 26.5095 5.99252 26.5095C6.21228 26.5095 6.25276 26.5325 6.21363 26.6346C6.14924 26.8023 4.21264 29.9843 4.09794 30.1107C3.91114 30.3168 3.06352 28.0656 2.78573 26.626C1.90264 22.0499 3.12424 17.599 6.37228 13.5577C7.47128 12.1903 7.55013 11.9754 7.16844 11.3868C6.60438 10.5168 5.76427 10.5662 4.86402 11.5222C-0.680331 17.4093 -1.59388 26.3646 2.68607 32.8726C4.06768 34.9734 6.24004 37.1903 7.74656 38.037C7.91485 38.1316 8.05268 38.2409 8.05268 38.2797C8.05268 38.3547 5.46952 42.3015 2.57542 46.6485C0.706866 49.4551 0.655973 49.5598 1.02205 49.8478C1.40413 50.1483 1.55854 50.0786 3.00742 48.9514C3.84348 48.3012 8.99188 44.448 13.3723 41.194C14.447 40.3957 15.0022 40.0289 15.1311 40.0316C15.2346 40.0337 15.6582 40.0823 16.0722 40.1394C23.5925 41.1751 31.3517 36.2488 33.8068 28.8793C34.315 27.3535 33.989 26.4411 32.9337 26.4355C32.4578 26.433 32.362 26.5263 35.745 23.6973C37.8928 21.9013 37.8928 21.9034 35.6439 21.1734L34.2955 20.7356L34.5754 20.643C34.7292 20.5921 34.9411 20.4487 35.046 20.324L35.2368 20.0973V17.2342C35.2368 13.5893 35.3538 13.8921 33.7143 13.2968C32.3115 12.7877 31.871 12.5957 31.9988 12.5495C32.0609 12.5271 32.6245 12.3239 33.2512 12.0984C34.5704 11.6234 34.7553 11.5355 35.0109 11.2621L35.199 11.0607L35.2222 7.96048C35.2466 4.69028 35.2272 4.45413 34.9089 4.15533C34.81 4.06242 33.344 3.36631 31.6508 2.60852C29.9577 1.85073 28.1828 1.04995 27.7065 0.82903C26.9846 0.494183 26.759 0.42382 26.3511 0.40647L25.8617 0.385651L20.6658 2.62375ZM30.7186 4.84218L33.0153 5.76441L33.0342 7.97514C33.0444 9.19115 33.0274 10.2815 32.9964 10.3983L32.9399 10.6107L32.2999 10.3862C31.9479 10.2628 31.3719 10.0644 31.0199 9.94528C29.7655 9.52137 28.222 8.96599 27.8916 8.81987L27.5559 8.67143V7.85099C27.5559 7.3999 27.5781 6.26524 27.6055 5.32971L27.6548 3.62868L28.0385 3.77422C28.2494 3.85441 29.4553 4.33481 30.7186 4.84218ZM29.0017 6.19314C28.8265 6.36818 28.8863 7.28809 29.0808 7.41224C29.2778 7.53792 31.5329 8.28646 31.7146 8.28646C32.0323 8.28646 32.1482 7.91634 31.999 7.37908C31.9277 7.12269 31.8899 7.0986 31.077 6.78958C30.6106 6.61261 30.0169 6.38553 29.7576 6.28509C29.2221 6.07786 29.1284 6.06649 29.0017 6.19314ZM18.0302 7.42496C10.4893 10.5371 10.087 10.7106 9.90138 10.9311C9.42215 11.5008 9.6928 12.3528 10.3532 12.3528C10.5811 12.3528 12.7837 11.4938 14.9804 10.5485C15.5811 10.29 16.5636 9.88166 17.1643 9.64108C18.4979 9.10691 21.2189 7.95875 21.5185 7.80376C22.2007 7.45099 21.9935 6.17309 21.2551 6.18003C21.1381 6.18099 19.6867 6.74139 18.0302 7.42496ZM24.3368 8.29514C24.0018 8.5097 23.9681 9.08088 24.2857 9.1605C24.5203 9.21949 25.0954 8.84107 25.1316 8.60396C25.1839 8.26102 24.6898 8.06902 24.3368 8.29514ZM22.4141 9.02787C22.1296 9.1524 22.1294 9.15279 22.1506 9.56667L22.1718 9.98075L22.4675 9.95704C23.0341 9.91154 23.1885 9.77101 23.1885 9.30103V8.88888L22.9437 8.89621C22.8091 8.90006 22.5708 8.95944 22.4141 9.02787ZM20.5716 9.74576L19.9505 9.97747V10.412C19.9505 10.9244 19.9919 10.94 20.6818 10.6869C21.2507 10.4781 21.242 10.4901 21.2156 9.96571L21.1929 9.51424L20.5716 9.74576ZM32.7818 13.971L33.0754 14.0961L33.0213 16.4803C32.9914 17.7915 32.9557 18.8757 32.942 18.8896C32.9282 18.9033 32.6849 18.8418 32.4013 18.7529C32.1177 18.6638 31.3436 18.4277 30.681 18.2282C30.0182 18.0285 29.0694 17.7329 28.5724 17.5712L27.6689 17.2772L27.6491 14.7556L27.6292 12.2339L30.0587 13.0399C31.3948 13.4832 32.6203 13.9021 32.7818 13.971ZM12.9474 12.7357C12.761 12.8203 11.7273 13.2471 10.6505 13.6843C8.28941 14.6428 8.02242 14.7791 7.86839 15.1037C7.56034 15.7526 8.04382 16.5158 8.67496 16.3772C9.06166 16.2921 13.5282 14.4868 13.7599 14.3218C14.7487 13.6176 14.0422 12.2389 12.9474 12.7357ZM29.0017 14.7022C28.8452 14.8587 28.8867 15.6957 29.0586 15.8515C29.2069 15.9854 31.3698 16.6449 31.6616 16.6449C32.0252 16.6449 32.1611 15.8231 31.8459 15.5295C31.5132 15.2196 29.167 14.5369 29.0017 14.7022ZM23.0377 15.5014C23.0377 15.5349 22.87 15.6358 22.6649 15.7254C22.4598 15.8148 22.2566 15.9546 22.213 16.0358C22.1195 16.2106 22.1074 16.6449 22.1961 16.6449C22.3098 16.6449 22.999 16.3988 23.0942 16.324C23.2066 16.2359 23.2236 15.4401 23.1131 15.4401C23.0717 15.4401 23.0377 15.4677 23.0377 15.5014ZM20.4399 16.4479C20.1085 16.5844 19.6256 16.8038 19.3667 16.9352L18.8962 17.1743V17.5203C18.8962 17.9344 18.8227 17.9404 20.2383 17.4141L21.1929 17.0592L21.2154 16.6262C21.2424 16.1096 21.2542 16.1125 20.4399 16.4479ZM16.976 17.8122C16.3088 18.1362 16.2976 18.146 16.255 18.4512C16.1966 18.8705 16.2357 18.8776 17.054 18.5941L17.7667 18.3473V17.9103C17.7667 17.3937 17.8232 17.4006 16.976 17.8122ZM28.5501 20.1002C29.0594 20.2612 29.9336 20.5197 30.4927 20.6748C31.6084 20.9843 33.5414 21.5254 33.7496 21.5865C33.952 21.6458 33.9067 21.8128 33.6366 22.0025C33.5018 22.0969 32.3074 23.0373 30.9821 24.0919C29.6568 25.1466 28.2505 26.2653 27.8571 26.578C27.4636 26.8906 27.074 27.2027 26.9911 27.2714C26.9082 27.3402 26.0781 28.007 25.1463 28.753C22.6713 30.7345 21.0335 32.0566 20.3977 32.5857C20.0894 32.8423 19.1427 33.6024 18.2938 34.275C17.4448 34.9478 16.0073 36.0932 15.0993 36.821C14.1916 37.5485 13.0777 38.4318 12.6245 38.7838C12.1713 39.1358 11.2028 39.8986 10.4724 40.4788C8.87563 41.7475 8.61308 41.9385 8.66975 41.7908C8.80431 41.4402 11.9695 37.0056 16.4593 30.8772C18.3923 28.2389 18.5191 28.0544 18.4183 28.0317C18.3073 28.0066 15.5188 28.6778 13.4368 29.2305C10.8737 29.9112 7.404 30.8554 6.08119 31.2323C5.99194 31.2577 9.7942 25.3785 10.0554 25.0872C10.0851 25.0541 10.8855 24.8091 13.7755 23.9481C14.8732 23.6212 16.6521 23.0855 17.7289 22.7576C22.4451 21.322 27.4143 19.8363 27.5712 19.8149C27.6001 19.8108 28.0406 19.9394 28.5501 20.1002ZM31.5358 27.7332C29.5093 33.2915 24.9265 37.0174 19.43 37.5755C18.7383 37.6458 18.4966 37.6393 18.6012 37.5531C18.6184 37.539 19.2256 37.0581 19.9505 36.4844C20.6751 35.9109 21.7567 35.05 22.354 34.5713C22.951 34.0926 24.2557 33.0499 25.2531 32.2544C26.2505 31.4586 28.1 29.9764 29.3632 28.9604C30.6262 27.9443 31.6828 27.1129 31.711 27.1125C31.7393 27.1123 31.6603 27.3915 31.5358 27.7332ZM12.345 32.1942C12.345 32.2145 11.8112 33.0771 11.1588 34.1111C10.5065 35.1454 9.93647 36.0501 9.89213 36.122C9.76432 36.3284 7.75716 34.9493 6.92824 34.0855C6.61093 33.7547 6.46674 33.8395 8.20324 33.3354C9.01096 33.1008 10.2308 32.744 10.9142 32.5424C12.178 32.1693 12.345 32.1287 12.345 32.1942Z" fill="#0D626F"/>
<path fill-rule="evenodd" clip-rule="evenodd" d="M20.8587 2.2381C18.0008 3.46896 14.0201 5.17037 12.0123 6.01896C7.70136 7.84105 7.4309 8.02535 7.70868 8.95201C7.94194 9.731 8.3377 9.77669 9.76577 9.18989C11.7459 8.376 13.9117 7.47536 16.0394 6.5807C17.1989 6.09299 18.978 5.34734 19.9926 4.92382C23.924 3.28293 25.1018 2.78962 25.8174 2.48446C26.2253 2.31039 26.5675 2.17872 26.5777 2.19183C26.5879 2.20475 26.5802 3.84506 26.5604 5.8366L26.5247 9.45784L21.282 11.5489C18.3985 12.6987 15.6157 13.8195 15.0981 14.0393C14.5803 14.2591 12.9369 14.9181 11.4458 15.504C5.79656 17.7236 5.81835 17.7143 5.56042 17.9713C5.11048 18.4199 5.20957 19.1939 5.74567 19.4159C5.99705 19.52 5.98722 19.5229 8.095 18.7092C8.81964 18.4293 10.0397 17.9703 10.8058 17.6893C11.5721 17.408 13.2833 16.7667 14.6086 16.2637C15.9339 15.761 17.5773 15.1435 18.2607 14.8915C18.9441 14.6398 20.295 14.1314 21.2628 13.7621C23.5105 12.9039 26.4368 11.8166 26.4983 11.8166C26.5245 11.8166 26.5369 13.0567 26.5261 14.5727L26.5062 17.3288L26.2051 17.4269C25.8997 17.5264 23.5608 18.2703 22.2517 18.6844C21.8582 18.8089 20.723 19.1755 19.7291 19.4992C18.7351 19.8229 17.261 20.2971 16.4535 20.5529C14.0451 21.3161 12.753 21.7356 10.7695 22.3983C9.73492 22.744 8.88229 23.0206 8.87458 23.0129C8.86686 23.0052 9.14831 22.5753 9.49993 22.0577C10.5033 20.5801 10.6394 20.1612 10.2687 19.6901C9.95391 19.2897 9.86215 19.2985 8.40941 19.867C7.67726 20.1535 6.66462 20.5419 6.15898 20.7303C4.34749 21.4046 3.91221 21.9176 4.40571 22.7954C4.70566 23.329 4.90229 23.3581 5.83512 23.0071C6.64534 22.7021 6.6359 22.6688 6.01517 23.6454C5.26451 24.8261 5.20225 24.9751 5.30268 25.348C5.41526 25.7665 5.82201 26.1239 6.18539 26.1239C6.40515 26.1239 6.44563 26.1468 6.4065 26.249C6.34211 26.4167 4.40551 29.5986 4.29081 29.7251C4.10401 29.9311 3.25639 27.6799 2.9786 26.2403C2.09551 21.6642 3.31711 17.2133 6.56515 13.172C7.66415 11.8047 7.743 11.5897 7.36131 11.0012C6.79725 10.1312 5.95714 10.1806 5.05689 11.1365C-0.48746 17.0236 -1.40101 25.9789 2.87894 32.4869C4.26055 34.5878 6.43291 36.8047 7.93943 37.6513C8.10772 37.746 8.24556 37.8553 8.24556 37.894C8.24556 37.969 5.66239 41.9159 2.76829 46.2629C0.899737 49.0695 0.848844 49.1741 1.21492 49.4622C1.597 49.7627 1.75141 49.6929 3.20029 48.5658C4.03635 47.9155 9.18475 44.0624 13.5651 40.8084C14.6398 40.0101 15.195 39.6432 15.324 39.6459C15.4275 39.6481 15.851 39.6966 16.2651 39.7537C23.7854 40.7895 31.5445 35.8632 33.9997 28.4936C34.5078 26.9678 34.1819 26.0554 33.1266 26.0498C32.6507 26.0473 32.5548 26.1406 35.9378 23.3117C38.0857 21.5156 38.0857 21.5177 35.8368 20.7877L34.4884 20.3499L34.7683 20.2574C34.9221 20.2065 35.134 20.0631 35.2388 19.9383L35.4297 19.7116V16.8486C35.4297 13.2036 35.5467 13.5065 33.9072 12.9112C32.5043 12.4021 32.0639 12.2101 32.1917 12.1638C32.2537 12.1414 32.8174 11.9383 33.4441 11.7127C34.7633 11.2377 34.9481 11.1498 35.2037 10.8765L35.3919 10.675L35.415 7.57483C35.4395 4.30463 35.42 4.06848 35.1018 3.76968C35.0029 3.67677 33.5368 2.98066 31.8437 2.22287C30.1506 1.46508 28.3757 0.664297 27.8994 0.443379C27.1774 0.108532 26.9519 0.0381694 26.544 0.0208198L26.0545 0L20.8587 2.2381ZM30.9115 4.45653L33.2082 5.37876L33.227 7.58949C33.2373 8.8055 33.2203 9.89583 33.1893 10.0126L33.1328 10.2251L32.4928 10.0005C32.1408 9.87712 31.5648 9.67876 31.2128 9.55963C29.9584 9.13572 28.4149 8.58034 28.0844 8.43422L27.7488 8.28578V7.46534C27.7488 7.01425 27.771 5.87959 27.7984 4.94406L27.8477 3.24302L28.2313 3.38857C28.4422 3.46876 29.6482 3.94915 30.9115 4.45653ZM29.1946 5.80749C29.0194 5.98253 29.0791 6.90244 29.2737 7.02659C29.4707 7.15227 31.7257 7.90081 31.9075 7.90081C32.2252 7.90081 32.3411 7.53069 32.1919 6.99343C32.1205 6.73704 32.0827 6.71294 31.2698 6.40393C30.8035 6.22696 30.2098 5.99988 29.9505 5.89944C29.415 5.69221 29.3213 5.68084 29.1946 5.80749ZM18.2231 7.03931C10.6822 10.1514 10.2799 10.3249 10.0943 10.5455C9.61502 11.1151 9.88567 11.9672 10.5461 11.9672C10.774 11.9672 12.9766 11.1082 15.1732 10.1628C15.7739 9.90431 16.7565 9.49601 17.3572 9.25543C18.6908 8.72126 21.4118 7.5731 21.7113 7.41811C22.3936 7.06533 22.1863 5.78744 21.448 5.79438C21.331 5.79534 19.8796 6.35574 18.2231 7.03931ZM24.5297 7.90949C24.1947 8.12404 24.1609 8.69523 24.4786 8.77485C24.7132 8.83384 25.2883 8.45542 25.3245 8.21831C25.3767 7.87537 24.8827 7.68336 24.5297 7.90949ZM22.607 8.64222C22.3224 8.76675 22.3222 8.76714 22.3435 9.18102L22.3647 9.5951L22.6604 9.57139C23.2269 9.52589 23.3813 9.38536 23.3813 8.91538V8.50323L23.1365 8.51056C23.002 8.51441 22.7637 8.57379 22.607 8.64222ZM20.7644 9.36011L20.1433 9.59182V10.0263C20.1433 10.5387 20.1848 10.5543 20.8747 10.3012C21.4436 10.0925 21.4349 10.1044 21.4085 9.58006L21.3858 9.12859L20.7644 9.36011ZM32.9747 13.5853L33.2683 13.7104L33.2141 16.0946C33.1843 17.4059 33.1486 18.49 33.1349 18.5039C33.121 18.5176 32.8777 18.4561 32.5942 18.3672C32.3106 18.2782 31.5364 18.042 30.8739 17.8425C30.2111 17.6428 29.2623 17.3473 28.7653 17.1855L27.8618 16.8916L27.8419 14.3699L27.8221 11.8482L30.2516 12.6542C31.5877 13.0976 32.8132 13.5165 32.9747 13.5853ZM13.1403 12.35C12.9539 12.4346 11.9202 12.8615 10.8434 13.2987C8.48228 14.2571 8.21529 14.3934 8.06127 14.718C7.75321 15.3669 8.23669 16.1301 8.86783 15.9915C9.25453 15.9065 13.7211 14.1012 13.9528 13.9362C14.9415 13.232 14.235 11.8532 13.1403 12.35ZM29.1946 14.3165C29.0381 14.473 29.0795 15.3101 29.2515 15.4658C29.3997 15.5998 31.5626 16.2593 31.8545 16.2593C32.2181 16.2593 32.354 15.4375 32.0388 15.1439C31.7061 14.8339 29.3598 14.1513 29.1946 14.3165ZM23.2306 15.1157C23.2306 15.1493 23.0629 15.2501 22.8578 15.3397C22.6527 15.4292 22.4495 15.569 22.4059 15.6501C22.3124 15.825 22.3003 16.2593 22.3889 16.2593C22.5027 16.2593 23.1918 16.0131 23.2871 15.9383C23.3995 15.8502 23.4164 15.0544 23.306 15.0544C23.2645 15.0544 23.2306 15.082 23.2306 15.1157ZM20.6328 16.0623C20.3014 16.1987 19.8185 16.4181 19.5596 16.5496L19.0891 16.7886V17.1347C19.0891 17.5487 19.0156 17.5547 20.4311 17.0284L21.3858 16.6735L21.4083 16.2406C21.4353 15.7239 21.4471 15.7268 20.6328 16.0623ZM17.1688 17.4265C16.5016 17.7506 16.4905 17.7604 16.4479 18.0656C16.3895 18.4848 16.4286 18.492 17.2469 18.2084L17.9596 17.9617V17.5246C17.9596 17.008 18.0161 17.0149 17.1688 17.4265ZM28.743 19.7145C29.2523 19.8755 30.1265 20.134 30.6855 20.2892C31.8013 20.5986 33.7342 21.1397 33.9424 21.2008C34.1448 21.2602 34.0995 21.4271 33.8295 21.6168C33.6947 21.7113 32.5003 22.6516 31.175 23.7063C29.8497 24.761 28.4434 25.8796 28.0499 26.1923C27.6565 26.505 27.2669 26.8171 27.184 26.8857C27.1011 26.9545 26.271 27.6213 25.3391 28.3674C22.8641 30.3489 21.2263 31.6709 20.5906 32.2001C20.2823 32.4567 19.3356 33.2168 18.4866 33.8894C17.6377 34.5621 16.2002 35.7076 15.2922 36.4353C14.3844 37.1628 13.2706 38.0461 12.8174 38.3981C12.3642 38.7501 11.3957 39.5129 10.6652 40.0932C9.06851 41.3618 8.80595 41.5529 8.86262 41.4052C8.99718 41.0545 12.1623 36.62 16.6522 30.4915C18.5851 27.8532 18.712 27.6688 18.6112 27.646C18.5001 27.6209 15.7117 28.2922 13.6297 28.8449C11.0666 29.5255 7.59688 30.4697 6.27407 30.8466C6.18481 30.8721 9.98707 24.9929 10.2483 24.7016C10.278 24.6684 11.0784 24.4234 13.9684 23.5625C15.0661 23.2355 16.845 22.6998 17.9218 22.3719C22.638 20.9363 27.6071 19.4506 27.764 19.4292C27.793 19.4252 28.2334 19.5538 28.743 19.7145ZM31.7286 27.3476C29.7022 32.9058 25.1194 36.6317 19.6228 37.1898C18.9312 37.2602 18.6894 37.2536 18.7941 37.1675C18.8113 37.1534 19.4185 36.6724 20.1433 36.0987C20.868 35.5252 21.9496 34.6643 22.5468 34.1856C23.1438 33.707 24.4485 32.6643 25.4459 31.8687C26.4434 31.0729 28.2928 29.5907 29.5561 28.5748C30.8191 27.5587 31.8757 26.7272 31.9039 26.7269C31.9322 26.7267 31.8532 27.0058 31.7286 27.3476ZM12.5378 31.8086C12.5378 31.8288 12.0041 32.6915 11.3517 33.7255C10.6994 34.7597 10.1293 35.6644 10.085 35.7363C9.95719 35.9428 7.95004 34.5637 7.12111 33.6999C6.80381 33.3691 6.65961 33.4539 8.39611 32.9498C9.20383 32.7152 10.4237 32.3583 11.1071 32.1567C12.3709 31.7837 12.5378 31.743 12.5378 31.8086Z" fill="#29D53A"/>
<path d="M47.0873 35V32.4446L57.2492 18.1861H47.0674V14.6364H62.6583V17.1918L52.4864 31.4503H62.6782V35H47.0873ZM70.2574 35.2884C69.2829 35.2884 68.4146 35.1193 67.6523 34.7812C66.8899 34.4366 66.2867 33.9295 65.8426 33.2599C65.4051 32.5838 65.1863 31.742 65.1863 30.7344C65.1863 29.8859 65.3421 29.1733 65.6537 28.5966C65.9652 28.0199 66.3895 27.5559 66.9264 27.2045C67.4633 26.8532 68.0732 26.5881 68.7559 26.4091C69.4453 26.2301 70.1679 26.1042 70.9236 26.0312C71.8118 25.9384 72.5277 25.8523 73.0713 25.7727C73.6149 25.6866 74.0093 25.5606 74.2545 25.3949C74.4998 25.2292 74.6224 24.9839 74.6224 24.6591V24.5994C74.6224 23.9697 74.4236 23.4825 74.0258 23.1378C73.6347 22.7931 73.0779 22.6207 72.3554 22.6207C71.5931 22.6207 70.9865 22.7898 70.5358 23.1278C70.085 23.4593 69.7867 23.8769 69.6409 24.3807L65.7233 24.0625C65.9221 23.1345 66.3132 22.3324 66.8966 21.6562C67.4799 20.9735 68.2323 20.4498 69.1537 20.0852C70.0817 19.714 71.1556 19.5284 72.3753 19.5284C73.2238 19.5284 74.0358 19.6278 74.8113 19.8267C75.5935 20.0256 76.2863 20.3338 76.8895 20.7514C77.4993 21.169 77.9799 21.706 78.3312 22.3622C78.6826 23.0118 78.8582 23.7907 78.8582 24.6989V35H74.8412V32.8821H74.7219C74.4766 33.3594 74.1485 33.7803 73.7375 34.1449C73.3265 34.5028 72.8327 34.7846 72.2559 34.9901C71.6792 35.1889 71.0131 35.2884 70.2574 35.2884ZM71.4704 32.3651C72.0935 32.3651 72.6437 32.2424 73.121 31.9972C73.5983 31.7453 73.9728 31.4072 74.2446 30.983C74.5164 30.5587 74.6523 30.0781 74.6523 29.5412V27.9205C74.5197 28.0066 74.3374 28.0862 74.1054 28.1591C73.88 28.2254 73.6248 28.2884 73.3398 28.348C73.0547 28.401 72.7697 28.4508 72.4846 28.4972C72.1996 28.5369 71.9411 28.5734 71.7091 28.6065C71.2119 28.6795 70.7777 28.7955 70.4065 28.9545C70.0353 29.1136 69.747 29.3291 69.5415 29.6009C69.336 29.866 69.2332 30.1974 69.2332 30.5952C69.2332 31.1719 69.442 31.6127 69.8596 31.9176C70.2839 32.2159 70.8208 32.3651 71.4704 32.3651ZM82.1444 40.7273V19.7273H86.3206V22.2926H86.5095C86.6951 21.8816 86.9636 21.464 87.3149 21.0398C87.6729 20.6089 88.1369 20.2509 88.7069 19.9659C89.2836 19.6742 89.9996 19.5284 90.8547 19.5284C91.9683 19.5284 92.9958 19.8201 93.9371 20.4034C94.8783 20.9801 95.6307 21.8518 96.1942 23.0185C96.7576 24.1785 97.0393 25.6335 97.0393 27.3835C97.0393 29.0871 96.7642 30.5256 96.214 31.6989C95.6705 32.8655 94.9281 33.7505 93.9868 34.3537C93.0521 34.9503 92.0048 35.2486 90.8447 35.2486C90.0228 35.2486 89.3234 35.1127 88.7467 34.8409C88.1766 34.5691 87.7093 34.2277 87.3447 33.8168C86.9801 33.3991 86.7017 32.9782 86.5095 32.554H86.3802V40.7273H82.1444ZM86.2907 27.3636C86.2907 28.2718 86.4167 29.0639 86.6686 29.7401C86.9205 30.4162 87.2851 30.9432 87.7623 31.321C88.2396 31.6922 88.8196 31.8778 89.5024 31.8778C90.1918 31.8778 90.7751 31.6889 91.2524 31.3111C91.7297 30.9266 92.0909 30.3963 92.3362 29.7202C92.5881 29.0374 92.714 28.2519 92.714 27.3636C92.714 26.482 92.5914 25.7064 92.3461 25.0369C92.1009 24.3674 91.7396 23.8437 91.2623 23.4659C90.7851 23.0881 90.1984 22.8991 89.5024 22.8991C88.813 22.8991 88.2297 23.0814 87.7524 23.446C87.2818 23.8106 86.9205 24.3277 86.6686 24.9972C86.4167 25.6667 86.2907 26.4555 86.2907 27.3636ZM110.99 20.4929C110.91 19.6908 110.569 19.0677 109.965 18.6236C109.362 18.1794 108.544 17.9574 107.509 17.9574C106.807 17.9574 106.214 18.0568 105.73 18.2557C105.246 18.4479 104.875 18.7164 104.616 19.0611C104.364 19.4058 104.238 19.7969 104.238 20.2344C104.225 20.599 104.301 20.9171 104.467 21.1889C104.639 21.4607 104.875 21.696 105.173 21.8949C105.471 22.0871 105.816 22.2562 106.207 22.402C106.598 22.5412 107.016 22.6605 107.46 22.7599L109.289 23.1974C110.178 23.3963 110.993 23.6615 111.735 23.9929C112.478 24.3243 113.121 24.732 113.664 25.2159C114.208 25.6998 114.629 26.2699 114.927 26.9261C115.232 27.5824 115.388 28.3348 115.394 29.1832C115.388 30.4295 115.07 31.5099 114.44 32.4247C113.817 33.3329 112.915 34.0388 111.735 34.5426C110.562 35.0398 109.147 35.2884 107.49 35.2884C105.846 35.2884 104.414 35.0365 103.194 34.5327C101.981 34.0289 101.033 33.2831 100.35 32.2955C99.6743 31.3011 99.3196 30.0715 99.2865 28.6065H103.453C103.499 29.2893 103.695 29.8594 104.039 30.3168C104.391 30.7675 104.858 31.1089 105.441 31.3409C106.031 31.5663 106.697 31.679 107.44 31.679C108.169 31.679 108.802 31.5729 109.339 31.3608C109.883 31.1487 110.304 30.8537 110.602 30.4759C110.9 30.098 111.049 29.6638 111.049 29.1733C111.049 28.7159 110.913 28.3314 110.642 28.0199C110.376 27.7083 109.985 27.4432 109.468 27.2244C108.958 27.0057 108.331 26.8068 107.589 26.6278L105.372 26.071C103.655 25.6534 102.299 25.0005 101.305 24.1122C100.311 23.224 99.8168 22.0275 99.8234 20.5227C99.8168 19.2898 100.145 18.2126 100.808 17.2912C101.477 16.3698 102.395 15.6506 103.562 15.1335C104.729 14.6165 106.054 14.358 107.539 14.358C109.051 14.358 110.37 14.6165 111.497 15.1335C112.63 15.6506 113.512 16.3698 114.142 17.2912C114.771 18.2126 115.096 19.2798 115.116 20.4929H110.99ZM125.171 35.2983C123.6 35.2983 122.248 34.9801 121.114 34.3438C119.987 33.7008 119.119 32.7926 118.509 31.6193C117.899 30.4394 117.594 29.044 117.594 27.4332C117.594 25.8622 117.899 24.4834 118.509 23.2969C119.119 22.1103 119.977 21.1856 121.084 20.5227C122.198 19.8598 123.504 19.5284 125.002 19.5284C126.01 19.5284 126.948 19.6908 127.816 20.0156C128.691 20.3338 129.453 20.8144 130.103 21.4574C130.759 22.1004 131.27 22.9091 131.634 23.8835C131.999 24.8513 132.181 25.9848 132.181 27.2841V28.4474H119.285V25.8224H128.194C128.194 25.2126 128.061 24.6723 127.796 24.2017C127.531 23.7311 127.163 23.3632 126.692 23.098C126.228 22.8262 125.688 22.6903 125.072 22.6903C124.429 22.6903 123.859 22.8395 123.361 23.1378C122.871 23.4295 122.486 23.8239 122.208 24.321C121.93 24.8116 121.787 25.3584 121.78 25.9616V28.4574C121.78 29.2131 121.92 29.866 122.198 30.4162C122.483 30.9664 122.884 31.3906 123.401 31.6889C123.918 31.9872 124.531 32.1364 125.241 32.1364C125.711 32.1364 126.142 32.0701 126.533 31.9375C126.924 31.8049 127.259 31.6061 127.538 31.3409C127.816 31.0758 128.028 30.7509 128.174 30.3665L132.092 30.625C131.893 31.5663 131.485 32.3883 130.869 33.0909C130.259 33.7869 129.47 34.3305 128.502 34.7216C127.541 35.1061 126.431 35.2983 125.171 35.2983ZM134.945 35V19.7273H139.052V22.392H139.211C139.489 21.4441 139.957 20.7282 140.613 20.2443C141.269 19.7538 142.025 19.5085 142.88 19.5085C143.092 19.5085 143.321 19.5218 143.566 19.5483C143.811 19.5748 144.027 19.6113 144.212 19.6577V23.4162C144.013 23.3565 143.738 23.3035 143.387 23.2571C143.036 23.2107 142.714 23.1875 142.422 23.1875C141.799 23.1875 141.243 23.3234 140.752 23.5952C140.268 23.8603 139.884 24.2315 139.599 24.7088C139.32 25.1861 139.181 25.7363 139.181 26.3594V35H134.945ZM161.106 19.7273L155.766 35H150.994L145.654 19.7273H150.128L153.3 30.6548H153.459L156.621 19.7273H161.106ZM169.741 35.2983C168.17 35.2983 166.818 34.9801 165.685 34.3438C164.558 33.7008 163.689 32.7926 163.079 31.6193C162.47 30.4394 162.165 29.044 162.165 27.4332C162.165 25.8622 162.47 24.4834 163.079 23.2969C163.689 22.1103 164.548 21.1856 165.655 20.5227C166.768 19.8598 168.074 19.5284 169.572 19.5284C170.58 19.5284 171.518 19.6908 172.386 20.0156C173.261 20.3338 174.024 20.8144 174.673 21.4574C175.329 22.1004 175.84 22.9091 176.204 23.8835C176.569 24.8513 176.751 25.9848 176.751 27.2841V28.4474H163.855V25.8224H172.764C172.764 25.2126 172.632 24.6723 172.366 24.2017C172.101 23.7311 171.733 23.3632 171.263 23.098C170.799 22.8262 170.258 22.6903 169.642 22.6903C168.999 22.6903 168.429 22.8395 167.932 23.1378C167.441 23.4295 167.057 23.8239 166.778 24.321C166.5 24.8116 166.357 25.3584 166.351 25.9616V28.4574C166.351 29.2131 166.49 29.866 166.768 30.4162C167.053 30.9664 167.454 31.3906 167.972 31.6889C168.489 31.9872 169.102 32.1364 169.811 32.1364C170.282 32.1364 170.713 32.0701 171.104 31.9375C171.495 31.8049 171.829 31.6061 172.108 31.3409C172.386 31.0758 172.598 30.7509 172.744 30.3665L176.662 30.625C176.463 31.5663 176.055 32.3883 175.439 33.0909C174.829 33.7869 174.04 34.3305 173.072 34.7216C172.111 35.1061 171.001 35.2983 169.741 35.2983ZM179.516 35V19.7273H183.622V22.392H183.781C184.06 21.4441 184.527 20.7282 185.183 20.2443C185.839 19.7538 186.595 19.5085 187.45 19.5085C187.662 19.5085 187.891 19.5218 188.136 19.5483C188.382 19.5748 188.597 19.6113 188.783 19.6577V23.4162C188.584 23.3565 188.309 23.3035 187.957 23.2571C187.606 23.2107 187.284 23.1875 186.993 23.1875C186.37 23.1875 185.813 23.3234 185.322 23.5952C184.838 23.8603 184.454 24.2315 184.169 24.7088C183.891 25.1861 183.751 25.7363 183.751 26.3594V35H179.516Z" fill="#29D53A"/>
</svg>
